<svg xmlns="http://www.w3.org/2000/svg" xmlns:xlink="http://www.w3.org/1999/xlink" xml:space="preserve" version="1.1" style="shape-rendering:geometricPrecision;text-rendering:geometricPrecision;image-rendering:optimizeQuality;" viewBox="0 0 60000 60000" x="0px" y="0px" fill-rule="evenodd" clip-rule="evenodd"><defs><style type="text/css">
   
    .fil0 {fill:black;fill-rule:nonzero}
   
  </style></defs><g><path class="fil0" d="M36145 34024c-205,82 -437,-17 -519,-222 -82,-205 17,-437 222,-519 506,-202 965,-454 1371,-748 925,-669 1582,-1554 1891,-2556 183,-593 246,-1229 171,-1886 -879,-14 -1695,-120 -2417,-330 -876,-254 -1620,-660 -2182,-1234 -677,-693 -791,-1499 -540,-2159 126,-330 343,-621 628,-840 283,-218 630,-365 1017,-411 889,-105 1995,321 2979,1684 388,537 686,1079 902,1618 117,291 209,582 279,870 1619,-60 3437,-426 5252,-1030 3019,-1005 6014,-2666 8068,-4673 1163,-1137 2018,-2379 2392,-3668l2 -8c253,-811 531,-1265 792,-1466 208,-160 420,-199 626,-142 183,51 335,178 452,359 203,314 317,852 286,1389l0 0c-19,796 -192,1689 -487,2626 -788,2501 -2461,5372 -4427,7603 -980,1112 -2038,2069 -3105,2752 255,252 494,517 708,787 534,676 910,1397 970,2074 41,468 -64,912 -361,1308 -561,748 -2349,1143 -4194,1171 -122,2 -244,2 -367,1 321,774 533,1550 574,2170 80,1194 -562,1667 -1551,1733 -690,46 -1564,-140 -2447,-405 236,950 321,1896 188,2559 -238,1185 -872,1410 -1743,1235 -432,-87 -900,-283 -1408,-495 -1296,-543 -2880,-1206 -4104,1 -157,154 -410,152 -564,-5 -154,-157 -152,-410 5,-564 1602,-1580 3454,-804 4970,-170 475,199 913,382 1258,452 397,80 689,-33 805,-610 133,-663 -5,-1700 -315,-2699 -435,-151 -857,-307 -1244,-451 -197,-73 -383,-143 -612,-225 -599,-217 -969,-524 -1163,-852 -99,-168 -153,-342 -169,-516 -16,-175 8,-346 65,-504 101,-281 307,-522 576,-681 227,-134 460,-197 694,-199 552,-4 1059,343 1492,895 385,491 722,1157 979,1870l13 37c977,323 1967,579 2673,532 514,-34 848,-275 807,-883 -43,-637 -290,-1460 -657,-2258 -461,-33 -910,-88 -1325,-166 -817,-153 -1523,-398 -1977,-738 -372,-279 -590,-624 -596,-1040 -3,-228 42,-455 135,-662 90,-203 226,-387 404,-535 264,-220 547,-330 841,-350 369,-25 739,96 1097,326 321,206 637,504 935,862 363,436 702,968 993,1532 243,9 488,12 732,8 1629,-24 3162,-313 3566,-852 168,-224 226,-483 202,-762 -45,-511 -355,-1088 -798,-1649 -236,-299 -508,-591 -799,-866 -875,454 -1746,705 -2574,687 -345,-8 -679,-60 -1002,-162 -427,-134 -739,-492 -890,-918 -86,-243 -120,-511 -93,-773 28,-271 122,-537 291,-764 255,-343 669,-591 1273,-628l0 -1c571,-50 1597,433 2588,1176 173,130 346,267 516,412 1052,-641 2118,-1597 3111,-2724 1898,-2154 3509,-4914 4265,-7313 277,-878 437,-1701 453,-2418l0 -14c21,-356 -33,-689 -136,-878 -131,145 -287,463 -460,1019l-1 0c-416,1427 -1344,2784 -2599,4010 -2139,2091 -5247,3817 -8374,4858 -1841,613 -3694,989 -5367,1063 74,740 -1,1459 -210,2133 -361,1168 -1121,2197 -2188,2968 -459,332 -975,616 -1539,841zm-11574 -589c210,69 324,295 255,505 -69,210 -295,324 -505,255 -748,-246 -1422,-590 -2006,-1012 -1014,-733 -1751,-1699 -2131,-2797 -251,-723 -347,-1501 -267,-2304 -1674,-75 -3527,-451 -5367,-1063 -3127,-1041 -6235,-2767 -8374,-4858 -1255,-1227 -2183,-2584 -2599,-4010l-1 0c-174,-556 -329,-873 -460,-1019 -103,189 -157,522 -136,878l0 14c16,717 177,1540 453,2418 756,2398 2367,5159 4265,7313 993,1127 2059,2084 3111,2724 170,-145 343,-282 516,-412 992,-743 2017,-1227 2588,-1176l0 1c603,37 1018,286 1273,628 169,228 263,493 291,764 27,262 -7,530 -93,773 -151,426 -463,783 -890,918 -322,102 -657,154 -1002,162 -828,18 -1699,-233 -2574,-687 -291,275 -563,567 -799,866 -443,561 -753,1138 -798,1649 -24,279 34,538 202,762 404,539 1937,828 3566,852 243,4 488,1 732,-8 291,-564 630,-1096 993,-1532 298,-358 614,-656 935,-862 358,-229 727,-350 1097,-326 294,20 577,130 841,350 178,148 313,332 404,535 92,207 138,434 135,662 -6,416 -224,761 -596,1040 -454,340 -1160,585 -1977,738 -416,78 -864,133 -1325,166 -367,797 -614,1621 -657,2258 -41,607 293,848 807,883 706,47 1696,-209 2673,-532l13 -37c257,-712 594,-1378 979,-1870 433,-552 939,-900 1492,-895 234,2 466,65 694,199 269,159 474,400 576,681 57,158 81,329 65,504 -16,174 -70,348 -169,516 -194,328 -564,636 -1163,852 -229,83 -415,152 -612,225 -387,144 -809,301 -1244,451 -310,998 -449,2036 -315,2699 116,577 408,690 805,610 345,-69 783,-253 1258,-452 1516,-635 3368,-1410 4970,170 157,154 159,407 5,564 -154,157 -407,159 -564,5 -1224,-1207 -2808,-544 -4104,-1 -507,212 -975,408 -1408,495 -870,175 -1504,-50 -1743,-1235 -133,-663 -49,-1610 188,-2559 -883,265 -1757,451 -2447,405 -989,-66 -1631,-539 -1551,-1733 41,-620 253,-1395 574,-2170 -122,1 -245,1 -367,-1 -1845,-28 -3633,-423 -4194,-1171 -297,-396 -402,-841 -361,-1308 59,-678 436,-1398 970,-2074 214,-270 453,-535 708,-787 -1067,-682 -2125,-1640 -3105,-2752 -1967,-2231 -3639,-5102 -4427,-7603 -295,-937 -468,-1830 -487,-2626l0 0c-31,-537 83,-1075 286,-1389 117,-181 269,-308 452,-359 205,-57 417,-19 626,142 261,201 539,655 792,1466l2 8c374,1289 1229,2531 2392,3668 2054,2007 5049,3668 8068,4673 1815,604 3633,970 5252,1030 39,-161 85,-323 138,-485 219,-665 563,-1339 1044,-2004 985,-1363 2090,-1790 2979,-1684 387,46 735,194 1017,411 285,219 502,510 628,840 251,660 137,1467 -540,2159 -562,575 -1306,980 -2182,1234 -722,210 -1538,316 -2417,330 -82,712 -2,1398 218,2033 326,941 963,1773 1844,2409 515,372 1116,678 1790,900zm-3622 -6378c-26,79 -50,159 -72,238 741,-23 1427,-120 2038,-297 745,-216 1371,-553 1832,-1025 431,-442 513,-932 365,-1322 -73,-191 -200,-361 -368,-490 -170,-131 -383,-220 -624,-249 -635,-75 -1455,271 -2238,1356 -429,594 -736,1195 -931,1789zm-9381 3829c658,303 1301,467 1909,453 265,-6 526,-47 780,-127 170,-54 302,-218 374,-421 48,-135 67,-283 52,-426 -14,-134 -58,-263 -138,-370 -124,-166 -345,-288 -688,-307l-13 0c-384,-34 -1196,384 -2041,1017 -78,59 -157,119 -235,182zm3197 4614c255,-29 503,-65 740,-109 706,-132 1296,-329 1646,-591 174,-130 275,-269 278,-412 2,-114 -21,-226 -66,-327 -42,-95 -105,-181 -185,-248 -126,-105 -255,-157 -385,-166 -188,-13 -396,62 -612,201 -253,162 -508,405 -753,700 -234,281 -457,606 -662,953zm3383 3100c206,-75 406,-150 598,-221 239,-89 465,-173 618,-228 406,-147 641,-328 748,-509 38,-64 58,-125 63,-181 5,-55 -3,-109 -21,-161 -38,-106 -121,-200 -232,-266 -103,-61 -200,-89 -291,-90 -279,-2 -576,227 -860,589 -228,291 -438,659 -622,1066zm20976 -11305c-53,-191 -119,-384 -196,-577 -193,-483 -461,-968 -809,-1450 -784,-1085 -1604,-1431 -2238,-1356 -241,29 -454,118 -624,249 -168,129 -296,299 -368,490 -148,390 -67,880 365,1322 461,472 1086,809 1832,1025 611,177 1298,274 2038,297zm7399 4044c608,13 1252,-150 1909,-453 -78,-62 -157,-123 -235,-182 -845,-633 -1657,-1051 -2041,-1017l-13 0c-343,20 -564,141 -688,307 -80,107 -124,236 -138,370 -15,143 4,291 52,426 72,202 204,367 374,421 254,80 515,121 780,127zm-2027 4052c237,44 485,81 740,109 -204,-347 -428,-672 -662,-953 -246,-295 -500,-538 -753,-700 -217,-139 -424,-213 -612,-201 -130,9 -259,61 -385,166 -80,67 -142,152 -185,248 -45,101 -68,214 -66,327 2,143 104,282 278,412 349,262 940,459 1646,591zm-3241 2988c191,71 392,146 598,221 -184,-408 -394,-776 -622,-1066 -284,-363 -582,-591 -860,-589 -91,1 -188,29 -291,90 -111,66 -194,160 -232,266 -19,51 -26,106 -21,161 5,57 25,118 63,181 107,181 341,362 748,509 153,55 380,140 618,228z"></path></g></svg>