<svg xmlns="http://www.w3.org/2000/svg" xmlns:xlink="http://www.w3.org/1999/xlink" version="1.1" x="0px" y="0px" viewBox="0 0 1024 1024" style="enable-background:new 0 0 1024 1024;" xml:space="preserve"><g><g><path d="M437.8,91c37.9,0,75.8,0,113.8,0c60.1,0,120.2,0,180.2,0c13.9,0,27.8,0,41.7,0c-2.9-5-5.8-10-8.6-15    c-7.1,10-14.1,20-21.2,30c-16.8,23.9-33.7,47.7-50.5,71.6c-20.4,28.9-40.7,57.7-61.1,86.6c-17.7,25.1-35.4,50.1-53.1,75.2    c-8.5,12.1-18,23.8-25.7,36.4c-0.1,0.2-0.3,0.4-0.4,0.5c-4.5,6.4,1.5,15,8.6,15c23.9,0,47.7,0,71.6,0c38,0,76.1,0,114.1,0    c8.8,0,17.5,0,26.3,0c-2.4-5.7-4.7-11.4-7.1-17.1c-4.5,5-9,10.1-13.6,15.1c-12.2,13.6-24.5,27.2-36.7,40.8    c-18.1,20.1-36.2,40.2-54.3,60.3c-22.2,24.7-44.3,49.3-66.5,74c-24.2,26.9-48.4,53.8-72.5,80.6c-24.4,27.1-48.8,54.3-73.2,81.4    c-22.9,25.4-45.7,50.8-68.6,76.3c-19.2,21.4-38.5,42.8-57.7,64.2c-13.8,15.4-27.7,30.8-41.5,46.2c-6.6,7.3-13.7,14.3-19.8,22    c-0.3,0.3-0.6,0.6-0.8,0.9c5.2,4,10.5,8.1,15.7,12.1c5.8-12.7,11.5-25.4,17.3-38.1c13.8-30.3,27.5-60.6,41.3-90.9    c16.7-36.8,33.4-73.6,50.1-110.4c14.4-31.7,28.8-63.4,43.1-95.1c7-15.5,14.2-30.9,21.1-46.4c0.1-0.2,0.2-0.4,0.3-0.6    c3-6.7-0.5-15-8.6-15c-21.5,0-43,0-64.5,0c-34.3,0-68.5,0-102.8,0c-7.8,0-15.7,0-23.5,0c3.2,4.2,6.4,8.4,9.6,12.7    c6.2-15.9,12.4-31.8,18.6-47.7c14.9-38.2,29.8-76.4,44.7-114.6c18-46.2,36-92.5,54.1-138.7c15.6-40,31.2-80,46.8-120    c5.2-13.3,10.3-26.5,15.5-39.8c2.4-6.2,5.2-12.4,7.3-18.7c0.1-0.3,0.2-0.6,0.3-0.9c2-5-2.2-11-7-12.3c-5.7-1.6-10.3,1.9-12.3,7    c-6.2,15.9-12.4,31.8-18.6,47.7c-14.9,38.2-29.8,76.4-44.7,114.6c-18,46.2-36,92.5-54.1,138.7c-15.6,40-31.2,80-46.8,120    c-5.2,13.3-10.3,26.5-15.5,39.8c-2.4,6.2-5.2,12.4-7.3,18.7c-0.1,0.3-0.2,0.6-0.3,0.9c-2.4,6.2,3.7,12.7,9.6,12.7    c21.5,0,43,0,64.5,0c34.3,0,68.5,0,102.8,0c7.8,0,15.7,0,23.5,0c-2.9-5-5.8-10-8.6-15c-5.8,12.7-11.5,25.4-17.3,38.1    c-13.8,30.3-27.5,60.6-41.3,90.9c-16.7,36.8-33.4,73.6-50.1,110.4c-14.4,31.7-28.8,63.4-43.1,95.1c-7,15.5-14.2,30.9-21.1,46.4    c-0.1,0.2-0.2,0.4-0.3,0.6c-2.1,4.5-1.7,9.7,2.6,12.9c3.8,2.8,9.7,3,13.1-0.8c4.5-5,9-10.1,13.6-15.1    c12.2-13.6,24.5-27.2,36.7-40.8c18.1-20.1,36.2-40.2,54.3-60.3c22.2-24.7,44.3-49.3,66.5-74c24.2-26.9,48.4-53.8,72.5-80.6    c24.4-27.1,48.8-54.3,73.2-81.4c22.9-25.4,45.7-50.8,68.6-76.3c19.2-21.4,38.5-42.8,57.7-64.2c13.8-15.4,27.7-30.8,41.5-46.2    c6.6-7.3,13.3-14.6,19.8-22c0.3-0.3,0.6-0.6,0.8-0.9c5.7-6.3,1.9-17.1-7.1-17.1c-23.9,0-47.7,0-71.6,0c-38,0-76.1,0-114.1,0    c-8.8,0-17.5,0-26.3,0c2.9,5,5.8,10,8.6,15c7.1-10,14.1-20,21.2-30c16.8-23.9,33.7-47.7,50.5-71.6c20.4-28.9,40.7-57.7,61.1-86.6    c17.7-25.1,35.4-50.1,53.1-75.2c8.5-12.1,18-23.8,25.7-36.4c0.1-0.2,0.3-0.4,0.4-0.5c4.5-6.4-1.5-15-8.6-15    c-37.9,0-75.8,0-113.8,0c-60.1,0-120.2,0-180.2,0c-13.9,0-27.8,0-41.7,0C424.9,71,424.9,91,437.8,91z"></path></g></g></svg>